<svg xmlns="http://www.w3.org/2000/svg" xmlns:xlink="http://www.w3.org/1999/xlink" version="1.1" data-diagram-type="SEQUENCE" style="width:854px;height:559px;background:#152324;" width="854px" height="559px" viewBox="0 0 854 559" zoomAndPan="magnify" preserveAspectRatio="none" contentStyleType="text/css"><?plantuml 1.2026.8?><defs/><g font-family="sans-serif" lengthAdjust="spacing"><rect x="0" y="0" width="854" height="559" fill="#152324" style="stroke:none;"/><rect x="272.035" y="320.055" width="496.867" height="204.703" fill="#152324" style="stroke:#152324;stroke-width:1;" rx="9" ry="9"/><rect x="272.035" y="320.055" width="496.867" height="204.703" fill="none" style="stroke:#E7A16C;stroke-width:1.5;" rx="9" ry="9"/><g><title>Kolejka zada.</title><rect x="76.206" y="66.906" width="8" height="481.852" fill="#000" fill-opacity="0"/><line x1="79.706" y1="66.906" x2="79.706" y2="548.758" style="stroke:#55736E;stroke-width:0.5;stroke-dasharray:5,5;"/></g><g><title>Program agenta</title><rect x="284.535" y="66.906" width="8" height="481.852" fill="#000" fill-opacity="0"/><line x1="288.035" y1="66.906" x2="288.035" y2="548.758" style="stroke:#55736E;stroke-width:0.5;stroke-dasharray:5,5;"/></g><g><title>Guidefold API</title><rect x="581.068" y="66.906" width="8" height="481.852" fill="#000" fill-opacity="0"/><line x1="584.568" y1="66.906" x2="584.568" y2="548.758" style="stroke:#55736E;stroke-width:0.5;stroke-dasharray:5,5;"/></g><g><title>Model . narz.dzia</title><rect x="749.402" y="66.906" width="8" height="481.852" fill="#000" fill-opacity="0"/><line x1="752.902" y1="66.906" x2="752.902" y2="548.758" style="stroke:#55736E;stroke-width:0.5;stroke-dasharray:5,5;"/></g><rect x="10" y="30.953" width="139.411" height="34.953" fill="#203B38" style="stroke:#68BCAD;stroke-width:0.5;" rx="9" ry="9"/><text x="17" y="54.661" fill="#EDF4F3" font-size="18" textLength="125.411">Kolejka zadań</text><rect x="208.332" y="10" width="159.406" height="55.906" fill="#203B38" style="stroke:#68BCAD;stroke-width:0.5;" rx="9" ry="9"/><text x="215.332" y="33.708" fill="#EDF4F3" font-size="18" textLength="145.406">Program agenta</text><text x="233.169" y="54.661" fill="#EDF4F3" font-size="18" textLength="109.731">na serwerze</text><rect x="517.152" y="30.953" width="134.832" height="34.953" fill="#203B38" style="stroke:#68BCAD;stroke-width:0.5;" rx="9" ry="9"/><text x="524.152" y="54.661" fill="#EDF4F3" font-size="18" textLength="120.832">Guidefold API</text><rect x="661.984" y="30.953" width="181.836" height="34.953" fill="#203B38" style="stroke:#68BCAD;stroke-width:0.5;" rx="9" ry="9"/><text x="668.984" y="54.661" fill="#EDF4F3" font-size="18" textLength="167.836">Model + narzędzia</text><polygon points="276.035,94.367,286.035,98.367,276.035,102.367,280.035,98.367" fill="#66D9C8" style="stroke:#66D9C8;stroke-width:1;stroke-linejoin:miter;stroke-miterlimit:10;"/><line x1="79.706" y1="98.367" x2="282.035" y2="98.367" style="stroke:#66D9C8;stroke-width:1;"/><text x="91.706" y="92.83" fill="#B5D6D0" font-size="15" font-weight="700">1</text><text x="106.143" y="92.83" fill="#B5D6D0" font-size="15" textLength="169.893">Zadanie do wykonania</text><polygon points="572.568,143.289,582.568,147.289,572.568,151.289,576.568,147.289" fill="#66D9C8" style="stroke:#66D9C8;stroke-width:1;stroke-linejoin:miter;stroke-miterlimit:10;"/><line x1="288.035" y1="147.289" x2="578.568" y2="147.289" style="stroke:#66D9C8;stroke-width:1;"/><text x="328.58" y="133.021" fill="#B5D6D0" font-size="15" font-weight="700">2</text><text x="343.017" y="124.291" fill="#B5D6D0" font-size="15" textLength="201.006">SEARCH: zadanie + zakres</text><text x="386.644" y="141.751" fill="#B5D6D0" font-size="15" textLength="113.752">token instalacji</text><polygon points="299.035,174.75,289.035,178.75,299.035,182.75,295.035,178.75" fill="#66D9C8" style="stroke:#66D9C8;stroke-width:1;stroke-linejoin:miter;stroke-miterlimit:10;"/><line x1="293.035" y1="178.75" x2="583.568" y2="178.75" style="stroke:#66D9C8;stroke-width:1;stroke-dasharray:2,2;"/><text x="354.563" y="173.212" fill="#B5D6D0" font-size="15" font-weight="700">3</text><text x="369" y="173.212" fill="#B5D6D0" font-size="15" textLength="149.041">Kandydaci + wersje</text><polygon points="740.902,223.672,750.902,227.672,740.902,231.672,744.902,227.672" fill="#66D9C8" style="stroke:#66D9C8;stroke-width:1;stroke-linejoin:miter;stroke-miterlimit:10;"/><line x1="288.035" y1="227.672" x2="746.902" y2="227.672" style="stroke:#66D9C8;stroke-width:1;"/><text x="427.743" y="213.404" fill="#B5D6D0" font-size="15" font-weight="700">4</text><text x="466.859" y="204.673" fill="#B5D6D0" font-size="15" textLength="121.655">Wybór instrukcji</text><text x="442.18" y="222.134" fill="#B5D6D0" font-size="15" textLength="171.013">według polityki agenta</text><polygon points="299.035,255.133,289.035,259.133,299.035,263.133,295.035,259.133" fill="#66D9C8" style="stroke:#66D9C8;stroke-width:1;stroke-linejoin:miter;stroke-miterlimit:10;"/><line x1="293.035" y1="259.133" x2="751.902" y2="259.133" style="stroke:#66D9C8;stroke-width:1;stroke-dasharray:2,2;"/><text x="429.512" y="253.595" fill="#B5D6D0" font-size="15" font-weight="700">5</text><text x="443.949" y="253.595" fill="#B5D6D0" font-size="15" textLength="167.476">Wybrany identyfikator</text><polygon points="572.568,304.055,582.568,308.055,572.568,312.055,576.568,308.055" fill="#66D9C8" style="stroke:#66D9C8;stroke-width:1;stroke-linejoin:miter;stroke-miterlimit:10;"/><line x1="288.035" y1="308.055" x2="578.568" y2="308.055" style="stroke:#66D9C8;stroke-width:1;"/><text x="332.176" y="293.787" fill="#B5D6D0" font-size="15" font-weight="700">6</text><text x="360.174" y="285.056" fill="#B5D6D0" font-size="15" textLength="166.692">USE: dokładna rewizja</text><text x="346.613" y="302.517" fill="#B5D6D0" font-size="15" textLength="193.813">+ opcjonalny proof_gated</text><path d="M281.035,320.055 L343.956,320.055 L343.956,333.008 L333.956,343.008 L272.035,343.008 L272.035,329.055 A9,9 0 0 1 281.035,320.055" style="stroke:#E7A16C;stroke-width:1.5;" fill="#24332F"/><rect x="272.035" y="320.055" width="496.867" height="204.703" fill="none" style="stroke:#E7A16C;stroke-width:1.5;" rx="9" ry="9"/><text x="287.035" y="337.763" fill="#FFE2C5" font-size="18" textLength="26.921" font-weight="700">alt</text><text x="358.956" y="338.763" fill="#EDF4F3" font-size="18" textLength="72.097" font-weight="700">[LOAD]</text><polygon points="299.035,378.422,289.035,382.422,299.035,386.422,295.035,382.422" fill="#66D9C8" style="stroke:#66D9C8;stroke-width:1;stroke-linejoin:miter;stroke-miterlimit:10;"/><line x1="293.035" y1="382.422" x2="583.568" y2="382.422" style="stroke:#66D9C8;stroke-width:1;stroke-dasharray:2,2;"/><text x="392.286" y="376.884" fill="#B5D6D0" font-size="15" font-weight="700">7</text><text x="406.723" y="376.884" fill="#B5D6D0" font-size="15" textLength="73.594">Instrukcja</text><polygon points="740.902,409.883,750.902,413.883,740.902,417.883,744.902,413.883" fill="#66D9C8" style="stroke:#66D9C8;stroke-width:1;stroke-linejoin:miter;stroke-miterlimit:10;"/><line x1="288.035" y1="413.883" x2="746.902" y2="413.883" style="stroke:#66D9C8;stroke-width:1;"/><text x="402.175" y="408.345" fill="#B5D6D0" font-size="15" font-weight="700">8</text><text x="416.612" y="408.345" fill="#B5D6D0" font-size="15" textLength="222.151">Wykonaj pracę z tą instrukcją</text><line x1="272.035" y1="422.883" x2="768.902" y2="422.883" style="stroke:#E7A16C;stroke-width:1;stroke-dasharray:2,2;"/><text x="277.035" y="441.591" fill="#EDF4F3" font-size="18" textLength="221.335" font-weight="700">[ASK / konflikt wersji]</text><polygon points="299.035,468.297,289.035,472.297,299.035,476.297,295.035,472.297" fill="#66D9C8" style="stroke:#66D9C8;stroke-width:1;stroke-linejoin:miter;stroke-miterlimit:10;"/><line x1="293.035" y1="472.297" x2="583.568" y2="472.297" style="stroke:#66D9C8;stroke-width:1;stroke-dasharray:2,2;"/><text x="348.678" y="466.759" fill="#B5D6D0" font-size="15" font-weight="700">9</text><text x="363.115" y="466.759" fill="#B5D6D0" font-size="15" textLength="160.811">Powód odmowy / 409</text><line x1="288.035" y1="503.758" x2="330.035" y2="503.758" style="stroke:#66D9C8;stroke-width:1;"/><line x1="330.035" y1="503.758" x2="330.035" y2="516.758" style="stroke:#66D9C8;stroke-width:1;"/><line x1="289.035" y1="516.758" x2="330.035" y2="516.758" style="stroke:#66D9C8;stroke-width:1;"/><polygon points="299.035,512.758,289.035,516.758,299.035,520.758,295.035,516.758" fill="#66D9C8" style="stroke:#66D9C8;stroke-width:1;stroke-linejoin:miter;stroke-miterlimit:10;"/><text x="295.035" y="498.22" fill="#B5D6D0" font-size="15" textLength="20.874" font-weight="700">10</text><text x="319.909" y="498.22" fill="#B5D6D0" font-size="15" textLength="257.659">Wyjaśnienie lub ponowny SEARCH</text><?plantuml-src ZPJRJjj048Rl_HHJUebGGvo4mqKbvmY2jD2egbGXLHFls6pixBhhjLpd4fM7G7qC7e7mNfqS80v4WGjBjkURV_xvjVQ7n60uHeYnq9c5T4mM5Jff95M21iSmH3yAZSwKQEbO6_YuNw-wrLg941HW5jkkLlOBZWa6gD816HbiPWPoGh1_kBcudD5fTsjTjuIaroXqBbK80SOfbIfBQqQHMLVrZD7vKg_HQ1-rNXLB0vlrTgDTsGGixDRB4yddZCAOcY-ZgLRSfdku4TL6a7boSzXiUUqIvkjneXKf-xRY2jsgAD3Y4DDtM7mcj-efRLzhkIstKgs_fCewdGDllz5wGPHYxtOxrLPP8QNV6IcVBj1OwSi4tvF9fgQjssnes7hublYv3FXIwolMwmTkexE1xh7dP7iQQ-W98QFl2MUfB8hccz_cUikh96kkM-rkmFkKfXYI5yjGWS-dZOnpBGL1eBKTwZyEPbQhR3pazyagHDWvqp6D8eG92dpykmEOmkKwSM5qE1l5yihYbLB8KqrEPa9pt5l7UncF3NGimBiudGEzTQ2l1SMm2mhDP7ed9XBdLD-vXBtFuC4n_6GlIX883NaHQSKFw7YpQe-hWuxthNLoF7SyetRvBZAKNYch8r8WLMenHdyadHxiBINFK8b2e2yPP-lfY1Q2VQxzA8OFzsRUPxA8-wvKJkBn9WiXqR6qHIINoplzPq5kCgWAu6MLBG8PeTLcPVBxe7FC_gF76nGScA5SJaOStYxen1_nIZ7t9aRhu5U8beI3iONphtpeLvvFdmnXsUiiZn6teZ-zWmdOwUtA-VJM8VxPWZSuWq_0P13Bo2uMBgTneVE7Um5QZ7LUC5ch72r6B3ORuUC_JdOMRfmDEGIbSxQx2DuX9Pp_?></g></svg>