<svg xmlns="http://www.w3.org/2000/svg" xmlns:xlink="http://www.w3.org/1999/xlink" version="1.1" data-diagram-type="DESCRIPTION" style="width:1378px;height:300px;background:#152324;" width="1378px" height="300px" viewBox="0 0 1378 300" zoomAndPan="magnify" preserveAspectRatio="none" contentStyleType="text/css"><?plantuml 1.2026.8?><defs/><g font-family="sans-serif" lengthAdjust="spacing"><rect x="0" y="0" width="1378" height="300" fill="#152324" style="stroke:none;"/><!--entity H--><g class="entity" data-qualified-name="H" id="ent0001" data-source-line="31"><rect x="6" y="12" width="222.772" height="61.906" fill="#203B38" style="stroke:#68BCAD;stroke-width:0.5;" rx="9" ry="9"/><text x="16" y="38.708" fill="#EDF4F3" font-size="18" textLength="95.467">CZŁOWIEK</text><text x="16" y="59.661" fill="#EDF4F3" font-size="18" textLength="202.772">Przegląda i zatwierdza</text></g><!--entity UI--><g class="entity" data-qualified-name="UI" id="ent0002" data-source-line="32"><rect x="266" y="12" width="239.727" height="61.906" fill="#203B38" style="stroke:#68BCAD;stroke-width:0.5;" rx="9" ry="9"/><text x="276" y="38.708" fill="#EDF4F3" font-size="18" textLength="123.513">PANEL REACT</text><text x="276" y="59.661" fill="#EDF4F3" font-size="18" textLength="219.727">Import / review / publish</text></g><!--entity API--><g class="entity" data-qualified-name="API" id="ent0003" data-source-line="33"><rect x="684" y="50.5" width="256.355" height="82.859" fill="#203B38" style="stroke:#68BCAD;stroke-width:0.5;" rx="9" ry="9"/><text x="694" y="77.208" fill="#EDF4F3" font-size="18" textLength="107.991">USŁUGA GO</text><text x="694" y="98.161" fill="#EDF4F3" font-size="18" textLength="183.551">Tożsamość i izolacja</text><text x="694" y="119.114" fill="#EDF4F3" font-size="18" textLength="236.355">SEARCH / USE / publikacja</text></g><!--entity PG--><g class="entity" data-qualified-name="PG" id="ent0004" data-source-line="34"><path d="M1132,162 C1132,152 1247.029,152 1247.029,152 C1247.029,152 1362.059,152 1362.059,162 L1362.059,233.859 C1362.059,243.859 1247.029,243.859 1247.029,243.859 C1247.029,243.859 1132,243.859 1132,233.859 L1132,162" style="stroke:#68BCAD;stroke-width:0.5;" fill="#203B38"/><path d="M1132,162 C1132,172 1247.029,172 1247.029,172 C1247.029,172 1362.059,172 1362.059,162" style="stroke:#68BCAD;stroke-width:0.5;" fill="none"/><text x="1142" y="192.708" fill="#EDF4F3" font-size="18" textLength="120.894">POSTGRESQL</text><text x="1142" y="213.661" fill="#EDF4F3" font-size="18" textLength="161.622">Wersje, biblioteka</text><text x="1142" y="234.614" fill="#EDF4F3" font-size="18" textLength="210.059">zadania i zapis zdarzeń</text></g><!--entity W--><g class="entity" data-qualified-name="W" id="ent0005" data-source-line="35"><rect x="752" y="222" width="119.51" height="61.906" fill="#203B38" style="stroke:#68BCAD;stroke-width:0.5;" rx="9" ry="9"/><text x="762" y="248.708" fill="#EDF4F3" font-size="18" textLength="80.156">WORKER</text><text x="762" y="269.661" fill="#EDF4F3" font-size="18" textLength="99.51">Praca w tle</text></g><!--entity AG--><g class="entity" data-qualified-name="AG" id="ent0006" data-source-line="36"><rect x="283.5" y="92" width="204.992" height="61.906" fill="#203B38" style="stroke:#68BCAD;stroke-width:0.5;" rx="9" ry="9"/><text x="293.5" y="118.708" fill="#EDF4F3" font-size="18" textLength="184.992">NARZĘDZIE AGENTA</text><text x="293.5" y="139.661" fill="#EDF4F3" font-size="18" textLength="161.569">Pobiera instrukcje</text></g><g class="entity" data-qualified-name="GMN12" id="ent0013" data-source-line="43"><path d="M652,161 L652,194.906 A9,9 0 0 0 661,203.906 L962.556,203.906 A9,9 0 0 0 971.556,194.906 L971.556,162 L961.556,152 L816,152 L812,133.578 L808,152 L661,152 A9,9 0 0 0 652,161" style="stroke:#E7A16C;stroke-width:0.5;" fill="#3C3025"/><path d="M961.556,152 L961.556,157.5 A4.5,4.5 0 0 0 966.056,162 L971.556,162 L961.556,152" style="stroke:#E7A16C;stroke-width:0.5;" fill="#3C3025"/><text x="658" y="173.708" fill="#FFE2C5" font-size="18" textLength="275.581">Model AI nie jest bazą prawdy.</text><text x="658" y="194.661" fill="#FFE2C5" font-size="18" textLength="298.556">Domyślne wyszukiwanie: BM25F.</text></g><g class="link" data-entity-1="ent0001" data-entity-2="ent0002" id="lnk7" data-link-type="dependency"><polygon points="265.592,43,256.592,39,260.592,43,256.592,47,265.592,43" fill="#66D9C8" style="stroke:#66D9C8;stroke-width:1;stroke-linejoin:miter;stroke-miterlimit:10;"/><path d="M229.205,43 C241.218,43 248.482,43 260.592,43" style="stroke:#66D9C8;stroke-width:1;" fill="none"/></g><g class="link" data-entity-1="ent0002" data-entity-2="ent0003" id="lnk8" data-link-type="dependency"><polygon points="683.773,77.297,675.291,72.29,678.806,76.723,674.373,80.237,683.773,77.297" fill="#66D9C8" style="stroke:#66D9C8;stroke-width:1;stroke-linejoin:miter;stroke-miterlimit:10;"/><path d="M506.236,56.78 C561.592,63.177 622.492,70.215 678.806,76.723" style="stroke:#66D9C8;stroke-width:1;" fill="none"/><text x="533.5" y="53.923" fill="#B5D6D0" font-size="15" textLength="91.677">kontrakt API</text></g><g class="link" data-entity-1="ent0006" data-entity-2="ent0003" id="lnk9" data-link-type="dependency"><polygon points="683.685,101.308,674.417,97.975,678.698,101.673,675.001,105.954,683.685,101.308" fill="#66D9C8" style="stroke:#66D9C8;stroke-width:1;stroke-linejoin:miter;stroke-miterlimit:10;"/><path d="M488.559,115.575 C547.112,111.294 616.273,106.237 678.698,101.673" style="stroke:#66D9C8;stroke-width:1;" fill="none"/><text x="526" y="100.923" fill="#B5D6D0" font-size="15" textLength="106.003">SEARCH / USE</text></g><g class="link" data-entity-1="ent0003" data-entity-2="ent0004" id="lnk10" data-link-type="dependency"><polygon points="1131.714,170.022,1123.923,163.997,1126.857,168.833,1122.021,171.768,1131.714,170.022" fill="#66D9C8" style="stroke:#66D9C8;stroke-width:1;stroke-linejoin:miter;stroke-miterlimit:10;"/><path d="M940.28,123.159 C1000.909,138.001 1067.996,154.424 1126.857,168.833" style="stroke:#66D9C8;stroke-width:1;" fill="none"/><text x="1001.5" y="130.923" fill="#B5D6D0" font-size="15" textLength="101.851">odczyt i zapis</text></g><g class="link" data-entity-1="ent0005" data-entity-2="ent0004" id="lnk11" data-link-type="dependency"><polygon points="1131.87,212.497,1122.438,209.663,1126.91,213.127,1123.446,217.599,1131.87,212.497" fill="#66D9C8" style="stroke:#66D9C8;stroke-width:1;stroke-linejoin:miter;stroke-miterlimit:10;"/><path d="M872.299,245.468 C938.889,237.01 1043.566,223.713 1126.91,213.127" style="stroke:#66D9C8;stroke-width:1;" fill="none"/><text x="992" y="192.923" fill="#B5D6D0" font-size="15" textLength="120.425">pobiera zadanie</text><text x="997.339" y="210.384" fill="#B5D6D0" font-size="15" textLength="109.746">zapisuje wynik</text></g><?plantuml-src ZPNFRjf04CRlVeffUctJ10UIvb396EEW943v8wI8os0liDZUTNUNKdoBrAYlK2clqYEyLzS64fDO90TBAyzllfdvD6j_Y0LE8eGGbtokG4P48KD31fJ5A3224Nh1HF0vysqUSW4VJyibitIM8tmondcewfof9aO4kiXabmWwBcQwD25mUb4StDPmQlMpkfb3v1Hzlg1i0cCC9Sb5jgq9HiI-gYK4NsprAfNQL_jLC5UmMgvLQYT5mARTShuYyRH7av1KNrfJEZ6hvaKXoeLFnAwRYwfjrNAOnwEOCyBKsuhFw4557nMEKBwZnIVoe1xZwhMMQPidfV9BAg_Zd5kd5Vi5aREzNdTATbv1aXzpmZpIHg6eHsDyZoT5IGUdAKWuk7nR_8QEzSFsHooNpysAKq2xkkVui1jxw1L1ZRx7dAsolwo-UJVtKruvUMQQfNe1Vakan0cnGZfXuEbj8yAOKf_0c7Cruh-Ca8mLA0w2JgOAV9ekEkNCU5fuEBBlrlUjGSEv7hAsICWaN3tu21GIL0jAX9_W4Q24gtnEssewDz1nBBitP0szwKB15tsBVbAoq8TuFWgfd6Pv_KO-iTzTt_TT2zpMaFNu-f_4YAyVLtzqFPhm4BqP3bdNiJhsbTRfTvsTMf26Ca6htJ1sbq5tqkhst8xJ_NupP0CYv8nyWX7L2Ng10wsLe8-CRkQ9gOJ4Hpta-dScrNRplGrQdMkdaxg07i82L4WoQf27cbRdRlMtTjTmm7ATPi_IF1zfdtG99fMO1zviasQvnXLy_lmjTQ3Vo4wwTRY4GA-Em41barXkBf8Vt4XVfQ6sgoFSzvAbsarX39uZyRRwPb2IJgo9-Op0OibeOAGt6KPSAHu17sSrRxbFGh0Qe7cO4QdqpoDPFO3-nIpyvR5Huz5o_HYoL48cyu0kKkLBgDwMolLZWp0_-puO_m40?></g></svg>